<?xml version="1.0" encoding="UTF-8"?>
<svg width="25px" height="25px" viewBox="0 0 25 25" version="1.1" xmlns="http://www.w3.org/2000/svg" xmlns:xlink="http://www.w3.org/1999/xlink">
    <!-- Generator: Sketch 50.2 (55047) - http://www.bohemiancoding.com/sketch -->
    <title>github</title>
    <desc>Created with Sketch.</desc>
    <defs></defs>
    <g id="Page-1" stroke="none" stroke-width="1" fill="none" fill-rule="evenodd">
        <g id="Desktop-HD" transform="translate(-386.000000, -4031.000000)" fill="#FFFFFF" fill-rule="nonzero">
            <g id="github" transform="translate(386.000000, 4031.000000)">
                <path d="M6.42439139,18.5161049 C6.42439139,19.1757491 6.98263109,19.5056648 8.09878277,19.5056648 C9.07570225,19.5056648 9.56395131,19.1632959 9.56395131,18.4783708 C9.56395131,17.8312266 9.03127341,17.5079588 7.96573034,17.5079588 C6.9380618,17.5078184 6.42439139,17.843867 6.42439139,18.5161049 Z M20.8076779,0 L4.16198502,0 C1.87294007,0 0,1.87289326 0,4.16198502 L0,20.806882 C0,23.0973783 1.87294007,24.9687734 4.16198502,24.9687734 L20.8076779,24.9687734 C23.0965824,24.9687734 24.9688202,23.0973315 24.9688202,20.8068352 L24.9688202,4.16198502 C24.9687734,1.87289326 23.0965824,0 20.8076779,0 Z M11.5999064,9.97261236 C11.4223315,10.0360955 11.168633,10.1057116 10.8388577,10.1819757 C10.940309,10.473736 10.9911517,10.7464888 10.9911517,11.0001404 C10.9911517,11.8119382 10.7469101,12.5191948 10.2585674,13.1218165 C9.7701779,13.7242509 9.13904494,14.0826779 8.36530899,14.1968165 C7.85805243,14.2729401 7.60435393,14.5457865 7.60435393,15.0151217 C7.60435393,15.1799625 7.68670412,15.3449906 7.85168539,15.5098315 C8.0673221,15.7508427 8.38441011,15.9031835 8.80308989,15.9666199 C10.6169944,16.2455993 11.52397,17.0003745 11.52397,18.2307116 C11.52397,20.1970506 10.3505618,21.1801498 8.00393258,21.1801498 C7.03974719,21.1801498 6.24695693,21.0088483 5.62546816,20.6664326 C4.83890449,20.2350655 4.44588015,19.5564139 4.44588015,18.6304307 C4.44588015,17.5646536 5.03576779,16.8352996 6.21521536,16.4422753 L6.21521536,16.4042603 C5.78403558,16.1379213 5.56844569,15.7320225 5.56844569,15.18647 C5.56844569,14.4760768 5.77144195,14.0320693 6.17724719,13.854588 L6.17724719,13.8165262 C5.77134831,13.6769663 5.40978464,13.3597378 5.09264981,12.8649345 C4.7375,12.3321161 4.55987828,11.7613296 4.55987828,11.1524813 C4.55987828,10.2390918 4.88347378,9.47804307 5.53014981,8.86919476 C6.15182584,8.29826779 6.89386704,8.01292135 7.75650749,8.01292135 C8.3781367,8.01292135 8.95514981,8.16502809 9.48801498,8.46942884 C10.0968633,8.46942884 10.8008427,8.31727528 11.6002809,8.01292135 L11.5999064,9.97261236 Z M14.6832397,16.5563202 L12.532912,16.5563202 C12.5583801,16.3026685 12.570927,15.8715356 12.570927,15.2624064 L12.570927,9.34475655 C12.570927,8.74845506 12.5581929,8.33614232 12.532912,8.10805243 L14.6832397,8.10805243 C14.6578652,8.34906367 14.6451779,8.74859551 14.6451779,9.30683521 L14.6451779,15.1482678 C14.6451779,15.7952247 14.6578652,16.2646067 14.6832397,16.5563202 Z M14.5404026,6.20519663 C14.2803371,6.48422285 13.9726592,6.62364232 13.6175562,6.62364232 C13.2497659,6.62364232 12.9358146,6.48417603 12.6757022,6.20519663 C12.4156367,5.92593633 12.2855337,5.59625468 12.2855337,5.21577715 C12.2855337,4.82233146 12.4156367,4.4863764 12.6757022,4.2071161 C12.9358146,3.92808989 13.2497659,3.78848315 13.6175562,3.78848315 C13.9726592,3.78848315 14.2803839,3.92808989 14.5404026,4.2071161 C14.8004682,4.48642322 14.9304775,4.82228464 14.9304775,5.21577715 C14.9304775,5.59625468 14.8004213,5.92598315 14.5404026,6.20519663 Z M20.5233614,16.3088951 C20.0539326,16.5627341 19.4893727,16.6894195 18.8297753,16.6894195 C17.9039326,16.6894195 17.2631554,16.3597378 16.9080524,15.7000468 C16.641573,15.2053371 16.5085206,14.4252809 16.5085206,13.3598315 L16.5085206,9.95379213 L16.5275281,9.95379213 L16.5275281,9.91573034 L16.2420412,9.89662921 C16.0771067,9.89662921 15.8613764,9.91573034 15.5950843,9.95374532 L15.5950843,8.10800562 L16.5273408,8.10800562 L16.5273408,7.36596442 C16.5273408,7.01067416 16.5083333,6.72514045 16.4702715,6.50959738 L18.6774345,6.50959738 C18.6396067,6.75051498 18.6205056,7.02326779 18.6205056,7.32771536 L18.6205056,8.1079588 L20.2757022,8.1079588 L20.2757022,9.95360487 C20.2123127,9.95360487 20.0950843,9.94733146 19.9236891,9.93464419 C19.7524345,9.92195693 19.5906835,9.91549625 19.4384831,9.91549625 L18.6203652,9.91549625 L18.6203652,13.4546348 C18.6203652,14.3047753 18.8995787,14.7296816 19.4575843,14.7296816 C19.8507022,14.7296816 20.2060393,14.6219569 20.5233146,14.4062734 L20.5233146,16.3088951 L20.5233614,16.3088951 Z M7.832397,9.7633427 C7.03319288,9.7633427 6.63361423,10.2328184 6.63361423,11.1713951 C6.63361423,12.0468165 7.0332397,12.4844101 7.832397,12.4844101 C8.60622659,12.4844101 8.99311798,12.0404494 8.99311798,11.1524345 C8.99311798,10.7845037 8.90435393,10.4674157 8.72682584,10.2009363 C8.51104869,9.90922285 8.21292135,9.7633427 7.832397,9.7633427 Z" id="Shape"></path>
            </g>
        </g>
    </g>
</svg>