<?xml version="1.0" encoding="UTF-8"?>
<svg width="65px" height="65px" viewBox="0 0 65 65" version="1.1" xmlns="http://www.w3.org/2000/svg" xmlns:xlink="http://www.w3.org/1999/xlink">
    <!-- Generator: Sketch 52.2 (67145) - http://www.bohemiancoding.com/sketch -->
    <title>Artboard</title>
    <desc>Created with Sketch.</desc>
    <g id="Artboard" stroke="none" stroke-width="1" fill="none" fill-rule="evenodd">
        <g id="Group" transform="translate(12.000000, 0.000000)" fill="#2B3957">
            <path d="M20.9998202,50 L6.13234087,35.3482398 C-2.04459301,27.2888503 -2.0438739,14.1026913 6.13305997,6.04401056 C14.3107129,-2.01467019 27.6903657,-2.01467019 35.8672996,6.04401056 C44.0442335,14.1026913 44.0442335,27.2888503 35.8672996,35.3482398 L20.9998202,50 Z" id="Path"></path>
            <path d="M16.1239781,50 L25.8760219,50 C27.0444996,50 28,51.0245796 28,52.2758085 L28,62.7249677 C28,63.9761966 27.0444996,65 25.8760219,65 L16.1239781,65 C14.9562248,65 14,63.9761966 14,62.7249677 L14,52.2758085 C14,51.0245796 14.9562248,50 16.1239781,50 Z" id="Path"></path>
        </g>
    </g>
</svg>