<?xml version="1.0" encoding="UTF-8"?>
<svg width="65px" height="65px" viewBox="0 0 65 65" version="1.1" xmlns="http://www.w3.org/2000/svg" xmlns:xlink="http://www.w3.org/1999/xlink">
    <!-- Generator: Sketch 52.2 (67145) - http://www.bohemiancoding.com/sketch -->
    <title>mywanderlogo</title>
    <desc>Created with Sketch.</desc>
    <g id="Page-1" stroke="none" stroke-width="1" fill="none" fill-rule="evenodd">
        <g id="mywanderlogo" fill-rule="nonzero">
            <path d="M1.82125,47.32 C1.835,45.4499425 2.37263889,43.8753736 3.05597222,43.8753736 C3.73902778,43.8753736 4.29930556,45.4499425 4.28541667,47.32 L4.28291667,59.0655747 L6.015,59.0655747 L6.01763889,47.32 C6.03138889,45.4499425 6.56888889,43.8753736 7.25194444,43.8753736 C7.93486111,43.8753736 8.49527778,45.4499425 8.48138889,47.32 L8.47888889,59.0655747 L10.2109722,59.0655747 L10.2134722,47.32 C10.2109722,45.0233333 9.96902778,43.1529023 9.47486111,41.7098276 C8.99111111,40.2335057 8.35361111,39.5121552 7.56069444,39.5121552 C6.80472222,39.5121552 6.12625,40.5939943 5.53958333,42.7924138 C5.02833333,40.5939943 4.36513889,39.5121552 3.56,39.5121552 C2.79180556,39.5121552 2.17305556,40.5618678 1.71666667,42.6612931 L1.69208333,42.6612931 L1.69055556,40.0691379 L0.0925,40.0691379 L0.0865277778,59.0655747 L1.81861111,59.0655747 L1.82125,47.32 Z M63.835,39.5121552 C63.0176389,39.5121552 62.3869444,40.5618678 61.9195833,42.6945402 L61.9168056,40.0691379 L60.3065278,40.0691379 L60.3005556,59.0655747 L62.0326389,59.0655747 L62.0343056,48.894569 C62.0427778,47.5172414 62.2173611,46.3352874 62.5577778,45.3516954 C62.9104167,44.3673563 63.3306944,43.8753736 63.8306944,43.8753736 C63.9894444,43.8753736 64.1641667,43.9736207 64.3556944,44.2029885 L64.9134722,39.9708908 C64.5730556,39.6754023 64.2130556,39.5121552 63.835,39.5121552 Z M59.82125,49.550546 C59.8244444,46.7618966 59.4526389,44.3673563 58.7075,42.4319253 C57.9751389,40.4957471 57.08375,39.5121552 56.0345833,39.5121552 C54.96125,39.5121552 54.0461111,40.4625 53.2906944,42.3986782 C52.5472222,44.3341092 52.1738889,46.6968966 52.1734722,49.550546 C52.1726389,52.4053161 52.5445833,54.8002299 53.2897222,56.7352874 C54.0343056,58.6718391 54.94875,59.6233046 56.0225,59.6233046 C57.3761111,59.6233046 58.5784722,57.8843678 59.30125,55.0957184 L57.9938889,52.7990517 C57.61625,54.4064943 56.8147222,55.4565805 56.0219444,55.4565805 C55.1433333,55.4565805 54.3929167,54.0131322 54.0963889,51.6832184 L59.7198611,51.6832184 C59.7959722,50.7975 59.8306944,50.1086494 59.82125,49.550546 Z M54.1009722,47.6487356 C54.3559722,45.3849425 55.1156944,43.8753736 56.0302778,43.8753736 C56.9576389,43.8753736 57.6958333,45.3188218 57.9676389,47.6487356 L54.1009722,47.6487356 Z M51.5426389,59.0655747 L51.5540278,34.4600862 L49.8219444,34.4600862 L49.8243056,42.8256609 L49.8,42.8256609 C49.1670833,40.6268678 48.3804167,39.5121552 47.44125,39.5121552 C46.4531944,39.5121552 45.6113889,40.4625 44.9168056,42.3986782 C44.2223611,44.3341092 43.8855556,46.6968966 43.8847222,49.550546 C43.8843056,52.4053161 44.2197222,54.8002299 44.9033333,56.7352874 C45.5995833,58.6718391 46.4411111,59.6233046 47.4291667,59.6233046 C48.4536111,59.6233046 49.2840278,58.375977 49.9205556,55.8831897 L49.9451389,55.8831897 L49.9445833,59.0655747 L51.5426389,59.0655747 Z M49.8130556,49.550546 C49.8109722,51.0933621 49.6061111,52.4385632 49.1986111,53.5861494 C48.8022222,54.7023563 48.3233333,55.2600862 47.7502778,55.2600862 C47.1766667,55.2600862 46.6798611,54.7023563 46.2834722,53.5861494 C45.8856944,52.4385632 45.6880556,51.0933621 45.6901389,49.550546 C45.6923611,48.0092241 45.8972222,46.664023 46.2936111,45.5478161 C46.7023611,44.433477 47.1806944,43.8753736 47.7543056,43.8753736 C48.3273611,43.8753736 48.8123611,44.433477 49.21,45.5810632 C49.6188889,46.6968966 49.8152778,48.0092241 49.8130556,49.550546 Z M38.2519444,48.173592 C38.2555556,46.9923851 38.4118056,45.9747989 38.7097222,45.154454 C39.0068056,44.3019828 39.3806944,43.8753736 39.8075,43.8753736 C40.2347222,43.8753736 40.5925,44.3019828 40.8930556,45.154454 C41.1943056,46.008046 41.3430556,47.0245115 41.3380556,48.173592 L41.3394444,59.0655747 L43.0715278,59.0655747 L43.0718056,47.5822414 C43.0777778,45.1877011 42.8209722,43.2522701 42.3133333,41.7759483 C41.8041667,40.2663793 41.1534722,39.5121552 40.3361111,39.5121552 C39.3115278,39.5121552 38.5336111,40.8573563 38.15625,42.7924138 L38.1316667,42.7924138 L38.1251389,40.0691379 L36.5270833,40.0691379 L36.52125,59.0655747 L38.2531944,59.0655747 L38.2519444,48.173592 Z M34.0780556,49.550546 C34.0759722,51.0933621 33.8711111,52.4385632 33.4759722,53.5861494 C33.0794444,54.7023563 32.5883333,55.2600862 32.0152778,55.2600862 C31.4418056,55.2600862 30.9572222,54.7023563 30.5484722,53.5861494 C30.1506944,52.4385632 29.9530556,51.0933621 29.9551389,49.550546 C29.9573611,48.0092241 30.1634722,46.6968966 30.5598611,45.5810632 C30.9673611,44.433477 31.4456944,43.8753736 32.0193056,43.8753736 C32.5923611,43.8753736 33.0897222,44.433477 33.4873611,45.5810632 C33.8838889,46.6968966 34.0802778,48.0092241 34.0780556,49.550546 Z M35.8076389,59.0655747 L35.8136111,40.0691379 L34.0815278,40.0691379 L34.0891667,42.8256609 L34.0651389,42.8256609 C33.45625,40.6268678 32.6695833,39.5121552 31.70625,39.5121552 C30.7181944,39.5121552 29.8763889,40.4625 29.1818056,42.3986782 C28.4873611,44.3341092 28.1505556,46.6968966 28.1497222,49.550546 C28.1493056,52.4053161 28.4847222,54.8002299 29.1683333,56.7352874 C29.8647222,58.6718391 30.7061111,59.6233046 31.6941667,59.6233046 C32.6575,59.6233046 33.4323611,58.5074713 34.0423611,56.2769253 L34.0665278,56.2769253 L34.0755556,59.0655747 L35.8076389,59.0655747 Z M21.0023611,60.246408 L22.93,49.0918103 L22.9793056,49.0918103 L24.9055556,60.246408 L28.5013889,40.0691379 L26.6594444,40.0691379 L24.9305556,50.0436494 L24.8816667,50.0436494 L22.9673611,38.887931 L21.0273611,50.0436494 L20.9786111,50.0436494 L19.2675,40.0691379 L15.7238889,40.0691379 L13.9644444,52.4385632 L13.9397222,52.4385632 L12.1741667,40.0691379 L10.3813889,40.0691379 L13.0547222,58.638592 L12.1875,64.6757471 L13.9683333,64.6757471 L17.47625,40.3526724 L21.0023611,60.246408 Z" id="Fill-2" fill="#2D3954"></path>
            <path d="M28.8173112,26.6798851 L21.8041283,18.9568391 C17.9469626,14.7086782 17.9473018,7.75816092 21.8044675,3.51037356 C25.6619725,-0.737413793 31.9733283,-0.737413793 35.830494,3.51037356 C39.6876598,7.75816092 39.6876598,14.7086782 35.830494,18.9568391 L28.8173112,26.6798851 Z M26.5235679,27.0370115 L31.0900234,27.0370115 C31.6371704,27.0370115 32.0845894,27.5301149 32.0845894,28.1322989 L32.0845894,33.1612069 C32.0845894,33.7633908 31.6371704,34.2561207 31.0900234,34.2561207 L26.5235679,34.2561207 C25.9767601,34.2561207 25.5290019,33.7633908 25.5290019,33.1612069 L25.5290019,28.1322989 C25.5290019,27.5301149 25.9767601,27.0370115 26.5235679,27.0370115 Z" id="Fill-3" fill="#98CCD5"></path>
        </g>
    </g>
</svg>