<?xml version="1.0" encoding="UTF-8"?>
<svg width="65px" height="65px" viewBox="0 0 65 65" version="1.1" xmlns="http://www.w3.org/2000/svg" xmlns:xlink="http://www.w3.org/1999/xlink">
    <!-- Generator: Sketch 52.2 (67145) - http://www.bohemiancoding.com/sketch -->
    <title>Artboard</title>
    <desc>Created with Sketch.</desc>
    <g id="Artboard" stroke="none" stroke-width="1" fill="none" fill-rule="evenodd">
        <rect fill="#FFFFFF" x="0" y="0" width="65" height="65"></rect>
        <g id="laptop-copy" fill="#4A4A4A" stroke="#FFFFFF">
            <path d="M35.75,64.9141521 L59.583291,64.9141521 C62.573418,64.9095217 64.9964453,61.7532308 65,57.8582229 L65,52.2135787 C64.9984766,50.6556086 64.0293164,49.3933238 62.833291,49.3911739 L62.833291,4.23352447 C62.8313867,1.89648666 61.3773926,0.00248058074 59.583291,0 L5.41670898,0 C3.62260742,0.00248058074 2.16861328,1.89648666 2.16670898,4.23352447 L2.16670898,49.3911739 C0.970683594,49.392993 0.00139648437,50.6554433 2.00296714e-31,52.2135787 L2.00296714e-31,57.8582229 C0.0035546875,61.7532308 2.42658203,64.9095217 5.41670898,64.9141521 L29.25,64.9141521 L35.75,64.9141521 Z M4.33341797,4.23352447 C4.33405273,3.45445674 4.81863281,2.82306626 5.41670898,2.82240477 L59.583418,2.82240477 C60.1814941,2.82290089 60.6663281,3.45445674 60.666709,4.23352447 L60.666709,49.3911739 L58.5,49.3911739 L58.5,8.46704894 C58.4975879,7.60083014 58.188584,6.78455371 57.6623633,6.25486703 C57.6462402,6.24014892 57.6335449,6.21980816 57.6169141,6.20591691 C57.2467187,5.84342137 56.796543,5.64662863 56.333418,5.64464417 L8.66670898,5.64464417 C7.47068359,5.64646326 6.50139648,6.90891349 6.5,8.46704894 L6.5,49.3911739 L4.33341797,49.3911739 L4.33341797,4.23352447 Z M11.1292187,49.3911739 L20.4166016,41.2393241 C23.9558008,44.5216286 28.1579492,46.3749531 32.5,46.5687692 C44.278584,46.5687692 53.5646973,30.4545859 53.9540625,29.7682919 C54.2375488,29.2696952 54.2375488,28.5883623 53.9540625,28.0897656 C51.7869727,24.4486038 49.2713965,21.1831673 46.4685254,18.3731655 L56.333418,9.71445031 L56.333418,49.3911739 L43.333418,49.3910086 L11.1292187,49.3911739 Z M41.5803223,52.2134133 L40.7963867,54.2557582 C40.6139551,54.734841 40.2384277,55.0373065 39.8278613,55.0358181 L25.1721387,55.0358181 C24.7615723,55.0374718 24.3860449,54.7350064 24.2036133,54.2557582 L23.4196777,52.2134133 L41.5803223,52.2134133 Z M20.7781641,37.519776 L20.4645898,37.7949551 C17.8113965,35.2250734 15.4052539,32.2483765 13.2983398,28.9291941 C15.6046973,25.2901822 18.2740137,22.0690654 21.2354492,19.3513411 C19.8187793,22.2048358 19.0656934,25.5309639 19.0668359,28.9291941 C19.0655664,31.9359887 19.6546289,34.8931717 20.7781641,37.519776 Z M22.5205957,22.0905638 C24.2569336,17.7445863 27.5275,14.7943489 31.2613184,14.2059552 C31.6723926,14.1606432 32.0832129,14.1115277 32.5,14.1115277 C32.9167871,14.1115277 33.3276074,14.1606432 33.7386816,14.2059552 C36.6799316,14.6390646 39.3708301,16.567468 41.22625,19.5717821 L36.1224805,24.0515455 C35.1580176,22.8087746 33.8566211,22.1107391 32.5,22.1087547 C30.7677246,22.1183463 29.1518652,23.246349 28.1863867,25.1200143 C27.2209082,26.9936797 27.0316211,29.3689184 27.6809863,31.4608748 L22.5782324,35.9396461 C20.8058398,31.6186398 20.7842578,26.4365412 22.5205957,22.0905638 Z M35.452041,28.0423038 C35.5042187,28.3330279 35.5315137,28.6303668 35.5330371,28.9290288 C35.5411621,31.1231851 34.1842871,32.9116838 32.499873,32.9268981 C31.8679004,32.925079 31.2526855,32.661972 30.7428418,32.1756128 L35.452041,28.0423038 Z M29.5492285,29.8210456 C29.4962891,29.5286678 29.4686133,29.2295098 29.4669629,28.9290288 C29.4588379,26.7348724 30.8157129,24.9463737 32.500127,24.9311595 C33.1334961,24.9329785 33.7501074,25.1974085 34.260459,25.6860829 L29.5492285,29.8210456 Z M28.8809473,33.8099848 C29.8449023,35.0506059 31.1449023,35.7473184 32.500127,35.7493028 C34.2317676,35.740042 35.8471191,34.6131968 36.8127246,32.7408545 C37.7783301,30.8685122 37.9685059,28.494431 37.3204102,26.40264 L42.4236719,21.9233726 C44.194668,26.2445443 44.2151074,31.4253198 42.4786426,35.7701397 C40.7420508,40.1147942 37.4719922,43.0640393 33.7388086,43.6521023 C33.3277344,43.6974143 32.9169141,43.7465298 32.500127,43.7465298 C32.0833398,43.7465298 31.6725195,43.6974143 31.2614453,43.6521023 C28.3215918,43.2193237 25.631709,41.2925739 23.776416,38.2905751 L28.8809473,33.8099848 Z M45.933291,28.9290288 C45.9345605,25.9240532 45.3462598,22.968524 44.2239941,20.3430773 L44.5389648,20.0664099 C47.1907617,22.63563 49.5955078,25.6111693 51.7016602,28.9288634 C49.3953027,32.5678753 46.7259863,35.7889921 43.7645508,38.5067164 C45.1812207,35.653387 45.9344336,32.327259 45.933291,28.9290288 Z M32.5,11.2894537 C20.721416,11.2894537 11.4353027,27.403637 11.0454297,28.089931 C10.7624512,28.5886931 10.7624512,29.2696952 11.0454297,29.7684573 C13.2136621,33.4111074 15.7306348,36.6777015 18.5350293,39.4886956 L8.66670898,48.1503875 L8.66670898,8.46704894 L53.8782715,8.46704894 L44.5870801,16.6222062 C41.0471191,13.3380827 36.8434473,11.4834351 32.5,11.2894537 Z M5.41670898,62.0917474 C3.62260742,62.0892668 2.16861328,60.1952607 2.16670898,57.8582229 L14.083418,57.8582229 C14.681748,57.8582229 15.166709,57.2265017 15.166709,56.4471032 C15.166709,55.6677047 14.681748,55.0359835 14.083418,55.0359835 L2.16670898,55.0359835 L2.16670898,52.2135787 L20.9970312,52.2135787 L22.2655469,55.5182084 C22.8130957,56.955953 23.9401855,57.8633494 25.1722656,57.8582229 L39.8279883,57.8582229 C41.0600684,57.8633494 42.1871582,56.955953 42.734707,55.5182084 L44.0032227,52.2135787 L62.8335449,52.2135787 L62.8335449,55.0358181 L50.9168359,55.0358181 C50.3185059,55.0358181 49.8335449,55.6677047 49.8335449,56.4469378 C49.8335449,57.2261709 50.3186328,57.8580575 50.9168359,57.8580575 L62.8335449,57.8580575 C62.8316406,60.1950953 61.3776465,62.0891014 59.5835449,62.091582 L5.41670898,62.091582 L5.41670898,62.0917474 Z" id="Shape" fill-rule="nonzero"></path>
            <path d="M19.9158249,54.7368421 L18.8215488,54.7368421 C18.2171514,54.7368421 17.7272727,55.3113107 17.7272727,56.0197368 C17.7272727,56.728163 18.2171514,57.3026316 18.8215488,57.3026316 L19.9158249,57.3026316 C20.5202223,57.3026316 21.010101,56.7283133 21.010101,56.0197368 C21.010101,55.3111604 20.5202223,54.7368421 19.9158249,54.7368421 Z" id="Path"></path>
            <path d="M46.1784512,54.7368421 L45.0841751,54.7368421 C44.4797777,54.7368421 43.989899,55.3113107 43.989899,56.0197368 C43.989899,56.728163 44.4797777,57.3026316 45.0841751,57.3026316 L46.1784512,57.3026316 C46.7828486,57.3026316 47.2727273,56.7283133 47.2727273,56.0197368 C47.2727273,55.3111604 46.7827204,54.7368421 46.1784512,54.7368421 Z" id="Path"></path>
        </g>
    </g>
</svg>