<?xml version="1.0" encoding="UTF-8"?>
<svg width="16px" height="16px" viewBox="0 0 16 16" version="1.1" xmlns="http://www.w3.org/2000/svg" xmlns:xlink="http://www.w3.org/1999/xlink">
    <!-- Generator: Sketch 50.2 (55047) - http://www.bohemiancoding.com/sketch -->
    <title>foreign</title>
    <desc>Created with Sketch.</desc>
    <defs></defs>
    <g id="Page-1" stroke="none" stroke-width="1" fill="none" fill-rule="evenodd">
        <g id="Desktop-HD" transform="translate(-956.000000, -1073.000000)" fill="#4A90E2" fill-rule="nonzero">
            <g id="foreign" transform="translate(956.000000, 1073.000000)">
                <path d="M15.2604651,0 L9.3445032,0 C8.93609714,0 8.60500003,0.331097874 8.60500003,0.739504877 C8.60500003,1.14791188 8.93609714,1.47900975 9.3445032,1.47900975 L13.475178,1.47900975 L5.86366211,9.09057493 C5.57485773,9.37937997 5.57485773,9.84755618 5.86366211,10.1363612 C6.00801664,10.2807479 6.19726946,10.3529412 6.38652228,10.3529412 C6.5757751,10.3529412 6.7650597,10.2807796 6.909446,10.1363294 L14.5209937,2.52479605 L14.5209937,6.65548034 C14.5209937,7.06388735 14.8520908,7.39498522 15.2604968,7.39498522 C15.6689029,7.39498522 16,7.06388735 16,6.65548034 L16,0.739504877 C15.9999682,0.331097874 15.6688711,0 15.2604651,0 Z" id="Shape"></path>
                <path d="M12.444406,7.21567579 C12.0401254,7.21567579 11.7123729,7.54342913 11.7123729,7.94771067 L11.7123729,14.5359617 L1.46403481,14.5359617 L1.46403481,4.28756772 L8.05227011,4.28756772 C8.45655068,4.28756772 8.78430324,3.95981438 8.78430324,3.55553284 C8.78430324,3.1512513 8.45655068,2.82352941 8.05227011,2.82352941 L0.732033134,2.82352941 C0.327752557,2.82352941 0,3.15128275 0,3.55556429 L0,15.2679966 C0,15.6722467 0.327752557,16 0.732033134,16 L12.4444375,16 C12.848718,16 13.1764706,15.6722467 13.1764706,15.2679651 L13.1764706,7.94771067 C13.1764391,7.54342913 12.8486866,7.21567579 12.444406,7.21567579 Z" id="Shape"></path>
            </g>
        </g>
    </g>
</svg>