<?xml version="1.0" encoding="UTF-8"?>
<svg width="65px" height="65px" viewBox="0 0 65 65" version="1.1" xmlns="http://www.w3.org/2000/svg" xmlns:xlink="http://www.w3.org/1999/xlink">
    <!-- Generator: Sketch 50.2 (55047) - http://www.bohemiancoding.com/sketch -->
    <title>logo</title>
    <desc>Created with Sketch.</desc>
    <defs></defs>
    <g id="Page-1" stroke="none" stroke-width="1" fill="none" fill-rule="evenodd">
        <g id="Desktop-HD" transform="translate(-222.000000, -2366.000000)" fill-rule="nonzero">
            <g id="logo" transform="translate(222.000000, 2366.000000)">
                <rect id="Rectangle-3" fill="#092729" x="0" y="0" width="65" height="65" rx="10"></rect>
                <g id="abs-2-copy" transform="translate(13.787879, 7.878788)" fill="#CD0000" stroke="#FFFFFF">
                    <path d="M0.0640151517,7.57122164 C6.84688102,5.17059039 13.2631054,1.47731154 16.3795573,0 C17.8461229,3.69327885 17.6628023,14.7731154 17.6628023,14.7731154 C17.6628023,14.7731154 10.8799364,17.3584106 2.99714633,17.3584106 C1.89722214,12.741812 0.797297944,9.04853319 0.0640151517,7.57122164 Z" id="Path-20"></path>
                    <path d="M20.7865872,7.57122164 C27.5694531,5.17059039 33.9856776,1.47731154 37.1021294,0 C38.568695,3.69327885 38.3853743,14.7731154 38.3853743,14.7731154 C38.3853743,14.7731154 31.6025085,17.3584106 23.7197184,17.3584106 C22.6197942,12.741812 21.51987,9.04853319 20.7865872,7.57122164 Z" id="Path-21" transform="translate(29.589647, 8.679205) scale(-1, 1) translate(-29.589647, -8.679205) "></path>
                    <path d="M3.54710843,21.0516894 C3.54710843,21.0516894 10.6966157,20.6823616 17.6628023,19.20505 C17.6628023,19.20505 18.2127643,30.4695505 17.8461229,31.0235423 C17.8461229,31.0235423 16.3290118,31.7086098 13.6860368,32.2905165 C11.3814742,32.7979147 8.22090565,33.2268786 4.46371192,33.0548457 C4.46371192,33.0548457 4.28039122,25.668288 3.54710843,21.0516894 Z" id="Path-22" fill-opacity="0.75"></path>
                    <path d="M20.4199458,21.0516894 C20.4199458,21.0516894 27.5694531,20.6823616 34.5356396,19.20505 C34.5356396,19.20505 35.0856017,30.4695505 34.7189603,31.0235423 C34.7189603,31.0235423 33.2018491,31.7086098 30.5588741,32.2905165 C28.2543115,32.7979147 25.093743,33.2268786 21.3365493,33.0548457 C21.3365493,33.0548457 21.1532286,25.668288 20.4199458,21.0516894 Z" id="Path-23" fill-opacity="0.75" transform="translate(27.632470, 26.149262) scale(-1, 1) translate(-27.632470, -26.149262) "></path>
                    <path d="M4.28039122,36.9327885 C4.28039122,36.9327885 13.2631054,36.7481245 17.8461229,34.9014851 C17.8461229,34.9014851 18.7627264,41.1800592 18.2127643,44.5040101 C17.8461229,45.6119938 17.6628023,50.2285924 4.28039122,48.7512808 C4.28039122,48.7512808 4.46371192,37.8561082 4.28039122,36.9327885 Z" id="Path-24" fill-opacity="0.5"></path>
                    <path d="M19.9346044,36.9327885 C19.9346044,36.9327885 28.9173186,36.7481245 33.5003361,34.9014851 C33.5003361,34.9014851 34.4169396,41.1800592 33.8669774,44.5040101 C33.5003361,45.6119938 33.3170154,50.2285924 19.9346044,48.7512808 C19.9346044,48.7512808 20.1179251,37.8561082 19.9346044,36.9327885 Z" id="Path-25" fill-opacity="0.5" transform="translate(26.988655, 41.970763) scale(-1, 1) translate(-26.988655, -41.970763) "></path>
                </g>
            </g>
        </g>
    </g>
</svg>