<?xml version="1.0" encoding="UTF-8"?>
<svg width="37px" height="44px" viewBox="0 0 37 44" version="1.1" xmlns="http://www.w3.org/2000/svg" xmlns:xlink="http://www.w3.org/1999/xlink">
    <!-- Generator: Sketch 52.2 (67145) - http://www.bohemiancoding.com/sketch -->
    <title>resume</title>
    <desc>Created with Sketch.</desc>
    <g id="Page-1" stroke="none" stroke-width="1" fill="none" fill-rule="evenodd">
        <g id="resume">
            <path d="M4,0 L23.4746094,0 L36,14.8095703 L36,40 C36,42.209139 34.209139,44 32,44 L4,44 C1.790861,44 2.705415e-16,42.209139 0,40 L0,4 C-2.705415e-16,1.790861 1.790861,4.05812251e-16 4,0 Z" id="Rectangle-11" fill="#FFFFFF"></path>
            <g id="contract" transform="translate(0.412281, 0.000000)" fill="#7443A1">
                <path d="M24.7951793,0.200015696 C24.6601346,0.0666718987 24.4574331,0 24.3222988,0 L3.3105224,0 C1.48638813,0 0,1.46669323 0,3.33332931 L0,40.6666707 C0,42.4666349 1.48638813,44 3.3105224,44 L32.9701794,44 C34.7943136,44 36.2807018,42.5333068 36.2807018,40.6666707 L36.2807018,13.0000463 C36.2807018,12.8667025 36.2131346,12.6666868 36.0780002,12.533343 L24.7951793,0.200015696 Z M24.9978808,2.40001127 L34.1187316,12.3333273 L24.9978808,12.3333273 L24.9978808,2.40001127 Z M34.9970152,40.6666707 C34.9970152,41.7333325 34.1187316,42.6666506 33.0377465,42.6666506 L3.3105224,42.6666506 C2.22953732,42.6666506 1.35125378,41.8000044 1.35125378,40.6666707 L1.35125378,3.33332931 C1.35125378,2.26666747 2.22953732,1.33334943 3.3105224,1.33334943 L23.646627,1.33334943 L23.646627,13.0000463 C23.646627,13.4000777 23.9168957,13.6666767 24.322209,13.6666767 L34.9970152,13.6666767 L34.9970152,40.6666707 Z" id="Shape" fill-rule="nonzero"></path>
                <path d="M6.08763406,18.5263158 L15.5265827,18.5263158 C15.9370034,18.5263158 16.2105263,18.2551779 16.2105263,17.8485611 L16.2105263,15.3407156 C16.2105263,13.239577 14.5006219,11.5450551 12.3802059,11.5450551 L11.2174382,11.5450551 C12.9274335,11.3417017 14.2953207,9.85053331 14.2953207,8.08831704 C14.2953207,6.19053182 12.7221323,4.63157895 10.8070175,4.63157895 C8.89190277,4.63157895 7.31871438,6.19053182 7.31871438,8.08831704 C7.31871438,9.85053331 8.68669244,11.2739172 10.3965969,11.5450551 L9.23382916,11.5450551 C7.11350405,11.5450551 5.40350877,13.239577 5.40350877,15.3407156 L5.40350877,17.8485611 C5.40359961,18.2551779 5.74561684,18.5263158 6.08763406,18.5263158 Z M8.68669244,8.15610151 C8.68669244,7.00385548 9.64424982,6.05496287 10.8070175,6.05496287 C11.9697853,6.05496287 12.9273426,7.00385548 12.9273426,8.15610151 C12.9273426,9.30834754 11.9697853,10.2572402 10.8070175,10.2572402 C9.64424982,10.2572402 8.68669244,9.30834754 8.68669244,8.15610151 Z M6.77157767,15.3407156 C6.77157767,13.9851161 7.86594194,12.9006546 9.23392,12.9006546 L12.3802059,12.9006546 C13.748184,12.9006546 14.8425483,13.9851161 14.8425483,15.3407156 L14.8425483,17.1707163 L6.77157767,17.1707163 L6.77157767,15.3407156 Z" id="Shape" fill-rule="nonzero"></path>
                <path d="M6.08862182,23.1578947 L16.2973431,23.1578947 C16.7084655,23.1578947 16.9824561,22.8490818 16.9824561,22.3859649 C16.9824561,21.922848 16.7083745,21.6140351 16.2973431,21.6140351 L6.08862182,21.6140351 C5.67749939,21.6140351 5.40350877,21.922848 5.40350877,22.3859649 C5.40350877,22.8490818 5.67749939,23.1578947 6.08862182,23.1578947 Z" id="Shape"></path>
                <path d="M5.40350877,27.7894737 C5.40350877,28.2526931 5.66985594,28.5614035 6.06928826,28.5614035 L29.4394837,28.5614035 C29.8390044,28.5614035 30.1052632,28.2525906 30.1052632,27.7894737 C30.1052632,27.3262543 29.838916,27.0175439 29.4394837,27.0175439 L6.06937669,27.0175439 C5.66985594,27.0175439 5.40350877,27.3263568 5.40350877,27.7894737 Z" id="Shape"></path>
                <path d="M29.4394813,31.6491228 L6.06929065,31.6491228 C5.66976846,31.6491228 5.40350877,31.9579357 5.40350877,32.4210526 C5.40350877,32.8841695 5.66985689,33.1929825 6.06929065,33.1929825 L29.4394813,33.1929825 C29.8390035,33.1929825 30.1052632,32.8841695 30.1052632,32.4210526 C30.1052632,31.9579357 29.7724164,31.6491228 29.4394813,31.6491228 Z" id="Shape"></path>
                <path d="M29.3728943,37.0526316 L6.06929065,37.0526316 C5.66976846,37.0526316 5.40350877,37.3614445 5.40350877,37.8245614 C5.40350877,38.2876783 5.66985689,38.5964912 6.06929065,38.5964912 L29.4394813,38.5964912 C29.8390035,38.5964912 30.1052632,38.2876783 30.1052632,37.8245614 C30.1052632,37.3614445 29.7724164,37.0526316 29.3728943,37.0526316 Z" id="Shape"></path>
                <path d="M22.1292421,18.6099804 C21.9920578,18.2869154 21.580505,18.1576895 21.2376354,18.2869154 C20.8946747,18.4161414 20.7574905,18.8038194 20.8946747,19.1267986 L22.7464802,22.7448688 C22.8150723,22.9387078 23.0208487,23.0679338 23.2266251,23.1325467 C23.4324015,23.1971597 23.6381779,23.1325467 23.8438632,23.0033208 L30.633938,17.3178063 C30.9083065,17.0593544 30.9768987,16.6717622 30.7025301,16.4133102 C30.4281616,16.1548583 30.0166999,16.1548583 29.7423313,16.3486972 L23.6380868,21.4526947 L22.1292421,18.6099804 Z" id="Shape"></path>
            </g>
        </g>
    </g>
</svg>